<?xml version="1.0" encoding="utf-8"?>
<svg version="1.1" xmlns:xlink="http://www.w3.org/1999/xlink" width="73px" height="73px" xmlns="http://www.w3.org/2000/svg">
  <g transform="matrix(1 0 0 1 -28 -41 )">
    <path d="M 64.5 41  C 84.94 41  101 57.06  101 77.5  C 101 97.94  84.94 114  64.5 114  C 44.06 114  28 97.94  28 77.5  C 28 57.06  44.06 41  64.5 41  Z " fill-rule="nonzero" fill="#ffffff" stroke="none" />
    <path d="M 64.5 41.5  C 84.66 41.5  100.5 57.34  100.5 77.5  C 100.5 97.66  84.66 113.5  64.5 113.5  C 44.34 113.5  28.5 97.66  28.5 77.5  C 28.5 57.34  44.34 41.5  64.5 41.5  Z " stroke-width="1" stroke="#797979" fill="none" />
  </g>
</svg>