<?xml version="1.0" encoding="utf-8"?>
<svg version="1.1" xmlns:xlink="http://www.w3.org/1999/xlink" width="40px" height="50px" xmlns="http://www.w3.org/2000/svg">
  <defs>
    <filter x="410px" y="19px" width="40px" height="50px" filterUnits="userSpaceOnUse" id="filter1">
      <feOffset dx="1" dy="1" in="SourceAlpha" result="shadowOffsetInner" />
      <feGaussianBlur stdDeviation="2.5" in="shadowOffsetInner" result="shadowGaussian" />
      <feComposite in2="shadowGaussian" operator="atop" in="SourceAlpha" result="shadowComposite" />
      <feColorMatrix type="matrix" values="0 0 0 0 0  0 0 0 0 0  0 0 0 0 0  0 0 0 0.698039215686274 0  " in="shadowComposite" />
    </filter>
    <g id="widget2">
      <path d="M 429 62.0369284683536  C 423.2 52.4073405959099  414.5 46.6295878724437  414.5 37  C 414.5 31.9857142857143  417.4 23.5  429 23.5  C 440.6 23.5  443.5 31.9857142857143  443.5 37  C 443.5 46.6295878724437  434.8 52.4073405959099  429 62.0369284683536  Z " fill-rule="nonzero" fill="#009dd9" stroke="none" />
      <path d="M 429 63  C 423 53  414 47  414 37  C 414 31.8  417 23  429 23  C 441 23  444 31.8  444 37  C 444 47  435 53  429 63  Z M 429 61.0738569367072  C 434.6 51.8146811918198  443 46.2591757448874  443 37  C 443 32.1714285714286  440.2 24  429 24  C 417.8 24  415 32.1714285714286  415 37  C 415 46.2591757448874  423.4 51.8146811918198  429 61.0738569367072  Z " fill-rule="nonzero" fill="#ffffff" stroke="none" />
    </g>
  </defs>
  <g transform="matrix(1 0 0 1 -410 -19 )">
    <use xlink:href="#widget2" filter="url(#filter1)" />
    <use xlink:href="#widget2" />
  </g>
</svg>